<?xml version="1.0" encoding="UTF-8"?>
<!DOCTYPE svg PUBLIC "-//W3C//DTD SVG 1.1//EN" "http://www.w3.org/Graphics/SVG/1.1/DTD/svg11.dtd">
<svg version="1.1" xmlns="http://www.w3.org/2000/svg" xmlns:xlink="http://www.w3.org/1999/xlink" x="0" y="0" width="300" height="160" viewBox="0, 0, 300, 160">
  <g id="symetric">
    <g>
      <path d="M69.254,11.974 C69.254,11.974 130.575,46.667 130.48,63.692 C130.385,80.718 79.07,132.079 79.07,132.079 C79.07,132.079 28.231,81.286 28.326,64.261 C28.421,47.235 69.254,11.974 69.254,11.974 z" fill="#FD603F"/>
      <path d="M89.254,31.974 C89.254,31.974 122.086,61.063 122.007,75.265 C121.928,89.466 79.125,132.307 79.125,132.307 C79.125,132.307 36.72,89.94 36.799,75.739 C36.878,61.537 89.254,31.974 89.254,31.974 z" fill="#FDB83E"/>
      <path d="M69.254,51.974 C69.254,51.974 113.58,74.941 113.517,86.331 C113.453,97.72 79.125,132.079 79.125,132.079 C79.125,132.079 45.116,98.101 45.18,86.711 C45.243,75.322 69.254,51.974 69.254,51.974 z" fill="#FDE940"/>
      <path d="M89.254,71.974 C89.254,71.974 105.07,89.236 105.07,97.805 C105.07,106.373 79.388,132.079 79.388,132.079 C79.388,132.079 53.659,106.373 53.659,97.805 C53.659,89.236 89.254,71.974 89.254,71.974 z" fill="#F8FF72"/>
    </g>
    <path d="M152.667,56.446 L162.027,56.446 L162.027,98.026 L152.667,98.026 z" fill="#000000"/>
    <path d="M178.647,81.226 Q178.647,88.726 184.707,88.726 Q186.087,88.726 187.287,88.366 Q188.487,88.006 189.327,87.526 L189.327,73.246 Q188.667,73.126 187.767,73.036 Q186.867,72.946 185.667,72.946 Q182.127,72.946 180.387,75.286 Q178.647,77.626 178.647,81.226 z M198.267,94.066 Q198.267,101.806 194.337,105.556 Q190.407,109.306 182.187,109.306 Q179.307,109.306 176.427,108.796 Q173.547,108.286 171.087,107.446 L172.647,99.946 Q174.747,100.786 177.057,101.266 Q179.367,101.746 182.307,101.746 Q186.147,101.746 187.737,100.066 Q189.327,98.386 189.327,95.746 L189.327,94.606 Q187.887,95.266 186.357,95.596 Q184.827,95.926 183.027,95.926 Q176.487,95.926 173.007,92.056 Q169.527,88.186 169.527,81.226 Q169.527,77.746 170.607,74.896 Q171.687,72.046 173.757,70.006 Q175.827,67.966 178.827,66.856 Q181.827,65.746 185.607,65.746 Q187.227,65.746 188.937,65.896 Q190.647,66.046 192.327,66.286 Q194.007,66.526 195.537,66.856 Q197.067,67.186 198.267,67.546 z" fill="#000000"/>
    <path d="M206.667,67.546 Q208.947,66.886 212.547,66.316 Q216.147,65.746 220.107,65.746 Q224.127,65.746 226.797,66.796 Q229.467,67.846 231.027,69.766 Q232.587,71.686 233.247,74.326 Q233.907,76.966 233.907,80.206 L233.907,98.026 L224.967,98.026 L224.967,81.286 Q224.967,76.966 223.827,75.166 Q222.687,73.366 219.567,73.366 Q218.607,73.366 217.527,73.456 Q216.447,73.546 215.607,73.666 L215.607,98.026 L206.667,98.026 z" fill="#000000"/>
    <path d="M250.947,98.026 L242.007,98.026 L242.007,66.466 L250.947,66.466 z M251.787,57.346 Q251.787,59.806 250.197,61.216 Q248.607,62.626 246.447,62.626 Q244.287,62.626 242.697,61.216 Q241.107,59.806 241.107,57.346 Q241.107,54.886 242.697,53.476 Q244.287,52.066 246.447,52.066 Q248.607,52.066 250.197,53.476 Q251.787,54.886 251.787,57.346 z" fill="#FD603F"/>
    <path d="M128.583,123.978 Q128.583,122.736 128.025,121.989 Q127.467,121.242 126.369,121.242 Q126.009,121.242 125.703,121.269 Q125.397,121.296 125.199,121.332 L125.199,126.174 Q125.451,126.336 125.856,126.444 Q126.261,126.552 126.675,126.552 Q128.583,126.552 128.583,123.978 z M131.319,123.906 Q131.319,125.004 131.049,125.904 Q130.779,126.804 130.257,127.452 Q129.735,128.1 128.961,128.46 Q128.187,128.82 127.179,128.82 Q126.621,128.82 126.135,128.712 Q125.649,128.604 125.199,128.406 L125.199,131.97 L122.517,131.97 L122.517,119.496 Q122.877,119.388 123.345,119.289 Q123.813,119.19 124.326,119.118 Q124.839,119.046 125.37,119.001 Q125.901,118.956 126.387,118.956 Q127.557,118.956 128.475,119.307 Q129.393,119.658 130.023,120.297 Q130.653,120.936 130.986,121.854 Q131.319,122.772 131.319,123.906 z" fill="#B1B1B1"/>
    <path d="M133.389,128.64 L133.389,115.104 L136.071,114.672 L136.071,119.208 Q136.341,119.118 136.764,119.037 Q137.187,118.956 137.583,118.956 Q138.735,118.956 139.5,119.271 Q140.265,119.586 140.724,120.162 Q141.183,120.738 141.372,121.53 Q141.561,122.322 141.561,123.294 L141.561,128.64 L138.879,128.64 L138.879,123.618 Q138.879,122.322 138.546,121.782 Q138.213,121.242 137.313,121.242 Q136.953,121.242 136.638,121.305 Q136.323,121.368 136.071,121.44 L136.071,128.64 z" fill="#B1B1B1"/>
    <path d="M150.057,123.978 Q150.057,122.736 149.499,121.989 Q148.941,121.242 147.843,121.242 Q147.483,121.242 147.177,121.269 Q146.871,121.296 146.673,121.332 L146.673,126.174 Q146.925,126.336 147.33,126.444 Q147.735,126.552 148.149,126.552 Q150.057,126.552 150.057,123.978 z M152.793,123.906 Q152.793,125.004 152.523,125.904 Q152.253,126.804 151.731,127.452 Q151.209,128.1 150.435,128.46 Q149.661,128.82 148.653,128.82 Q148.095,128.82 147.609,128.712 Q147.123,128.604 146.673,128.406 L146.673,131.97 L143.991,131.97 L143.991,119.496 Q144.351,119.388 144.819,119.289 Q145.287,119.19 145.8,119.118 Q146.313,119.046 146.844,119.001 Q147.375,118.956 147.861,118.956 Q149.031,118.956 149.949,119.307 Q150.867,119.658 151.497,120.297 Q152.127,120.936 152.46,121.854 Q152.793,122.772 152.793,123.906 z" fill="#B1B1B1"/>
    <path d="M163.287,114.672 Q164.043,114.672 164.673,114.825 Q165.303,114.978 165.645,115.122 L165.123,117.264 Q164.763,117.102 164.34,117.021 Q163.917,116.94 163.557,116.94 Q163.071,116.94 162.738,117.075 Q162.405,117.21 162.216,117.444 Q162.027,117.678 161.946,118.002 Q161.865,118.326 161.865,118.704 L161.865,119.172 L165.177,119.172 L165.177,121.404 L161.865,121.404 L161.865,128.64 L159.183,128.64 L159.183,118.668 Q159.183,116.832 160.218,115.752 Q161.253,114.672 163.287,114.672 z" fill="#B1B1B1"/>
    <path d="M172.485,121.548 Q172.125,121.458 171.639,121.359 Q171.153,121.26 170.595,121.26 Q170.343,121.26 169.992,121.305 Q169.641,121.35 169.461,121.404 L169.461,128.64 L166.779,128.64 L166.779,119.676 Q167.499,119.424 168.48,119.199 Q169.461,118.974 170.667,118.974 Q170.883,118.974 171.189,119.001 Q171.495,119.028 171.801,119.073 Q172.107,119.118 172.413,119.181 Q172.719,119.244 172.935,119.334 z" fill="#B1B1B1"/>
    <path d="M177.813,126.768 Q178.209,126.768 178.569,126.75 Q178.929,126.732 179.145,126.696 L179.145,124.662 Q178.983,124.626 178.659,124.59 Q178.335,124.554 178.065,124.554 Q177.687,124.554 177.354,124.599 Q177.021,124.644 176.769,124.77 Q176.517,124.896 176.373,125.112 Q176.229,125.328 176.229,125.652 Q176.229,126.282 176.652,126.525 Q177.075,126.768 177.813,126.768 z M177.597,118.92 Q178.785,118.92 179.577,119.19 Q180.369,119.46 180.846,119.964 Q181.323,120.468 181.521,121.188 Q181.719,121.908 181.719,122.79 L181.719,128.37 Q181.143,128.496 180.117,128.667 Q179.091,128.838 177.633,128.838 Q176.715,128.838 175.968,128.676 Q175.221,128.514 174.681,128.145 Q174.141,127.776 173.853,127.182 Q173.565,126.588 173.565,125.724 Q173.565,124.896 173.898,124.32 Q174.231,123.744 174.789,123.402 Q175.347,123.06 176.067,122.907 Q176.787,122.754 177.561,122.754 Q178.083,122.754 178.488,122.799 Q178.893,122.844 179.145,122.916 L179.145,122.664 Q179.145,121.98 178.731,121.566 Q178.317,121.152 177.291,121.152 Q176.607,121.152 175.941,121.251 Q175.275,121.35 174.789,121.53 L174.447,119.37 Q174.681,119.298 175.032,119.217 Q175.383,119.136 175.797,119.073 Q176.211,119.01 176.67,118.965 Q177.129,118.92 177.597,118.92 z" fill="#B1B1B1"/>
    <path d="M189.351,123.618 Q189.351,122.322 189.018,121.782 Q188.685,121.242 187.875,121.242 Q187.623,121.242 187.353,121.269 Q187.083,121.296 186.831,121.332 L186.831,128.64 L184.149,128.64 L184.149,119.496 Q184.491,119.406 184.95,119.307 Q185.409,119.208 185.922,119.127 Q186.435,119.046 186.975,119.001 Q187.515,118.956 188.037,118.956 Q189.063,118.956 189.702,119.217 Q190.341,119.478 190.755,119.838 Q191.331,119.424 192.078,119.19 Q192.825,118.956 193.455,118.956 Q194.589,118.956 195.318,119.271 Q196.047,119.586 196.479,120.162 Q196.911,120.738 197.073,121.53 Q197.235,122.322 197.235,123.294 L197.235,128.64 L194.553,128.64 L194.553,123.618 Q194.553,122.322 194.22,121.782 Q193.887,121.242 193.077,121.242 Q192.861,121.242 192.474,121.35 Q192.087,121.458 191.835,121.62 Q191.961,122.034 191.997,122.493 Q192.033,122.952 192.033,123.474 L192.033,128.64 L189.351,128.64 z" fill="#B1B1B1"/>
    <path d="M199.215,123.978 Q199.215,122.718 199.602,121.773 Q199.989,120.828 200.619,120.198 Q201.249,119.568 202.068,119.244 Q202.887,118.92 203.751,118.92 Q205.767,118.92 206.937,120.153 Q208.107,121.386 208.107,123.78 Q208.107,124.014 208.089,124.293 Q208.071,124.572 208.053,124.788 L201.969,124.788 Q202.059,125.616 202.743,126.102 Q203.427,126.588 204.579,126.588 Q205.317,126.588 206.028,126.453 Q206.739,126.318 207.189,126.12 L207.549,128.298 Q207.333,128.406 206.973,128.514 Q206.613,128.622 206.172,128.703 Q205.731,128.784 205.227,128.838 Q204.723,128.892 204.219,128.892 Q202.941,128.892 201.996,128.514 Q201.051,128.136 200.43,127.479 Q199.809,126.822 199.512,125.922 Q199.215,125.022 199.215,123.978 z M205.515,122.952 Q205.497,122.61 205.398,122.286 Q205.299,121.962 205.092,121.71 Q204.885,121.458 204.57,121.296 Q204.255,121.134 203.787,121.134 Q203.337,121.134 203.013,121.287 Q202.689,121.44 202.473,121.692 Q202.257,121.944 202.14,122.277 Q202.023,122.61 201.969,122.952 z" fill="#B1B1B1"/>
    <path d="M215.937,123.204 Q215.577,124.572 215.172,125.922 Q214.767,127.272 214.317,128.64 L212.229,128.64 Q211.905,127.884 211.527,126.84 Q211.149,125.796 210.744,124.563 Q210.339,123.33 209.916,121.953 Q209.493,120.576 209.097,119.172 L211.923,119.172 Q212.067,119.82 212.238,120.585 Q212.409,121.35 212.598,122.16 Q212.787,122.97 212.994,123.789 Q213.201,124.608 213.417,125.364 Q213.651,124.572 213.876,123.744 Q214.101,122.916 214.308,122.115 Q214.515,121.314 214.704,120.567 Q214.893,119.82 215.037,119.172 L216.981,119.172 Q217.125,119.82 217.305,120.567 Q217.485,121.314 217.683,122.115 Q217.881,122.916 218.097,123.744 Q218.313,124.572 218.547,125.364 Q218.763,124.608 218.979,123.789 Q219.195,122.97 219.384,122.16 Q219.573,121.35 219.744,120.585 Q219.915,119.82 220.059,119.172 L222.849,119.172 Q222.453,120.576 222.03,121.953 Q221.607,123.33 221.202,124.563 Q220.797,125.796 220.41,126.84 Q220.023,127.884 219.699,128.64 L217.611,128.64 Q217.161,127.272 216.729,125.922 Q216.297,124.572 215.937,123.204 z" fill="#B1B1B1"/>
    <path d="M232.929,123.888 Q232.929,125.004 232.605,125.931 Q232.281,126.858 231.669,127.515 Q231.057,128.172 230.202,128.532 Q229.347,128.892 228.285,128.892 Q227.241,128.892 226.386,128.532 Q225.531,128.172 224.919,127.515 Q224.307,126.858 223.965,125.931 Q223.623,125.004 223.623,123.888 Q223.623,122.772 223.974,121.854 Q224.325,120.936 224.946,120.288 Q225.567,119.64 226.422,119.28 Q227.277,118.92 228.285,118.92 Q229.311,118.92 230.166,119.28 Q231.021,119.64 231.633,120.288 Q232.245,120.936 232.587,121.854 Q232.929,122.772 232.929,123.888 z M230.193,123.888 Q230.193,122.646 229.698,121.935 Q229.203,121.224 228.285,121.224 Q227.367,121.224 226.863,121.935 Q226.359,122.646 226.359,123.888 Q226.359,125.13 226.863,125.859 Q227.367,126.588 228.285,126.588 Q229.203,126.588 229.698,125.859 Q230.193,125.13 230.193,123.888 z" fill="#B1B1B1"/>
    <path d="M240.705,121.548 Q240.345,121.458 239.859,121.359 Q239.373,121.26 238.815,121.26 Q238.563,121.26 238.212,121.305 Q237.861,121.35 237.681,121.404 L237.681,128.64 L234.999,128.64 L234.999,119.676 Q235.719,119.424 236.7,119.199 Q237.681,118.974 238.887,118.974 Q239.103,118.974 239.409,119.001 Q239.715,119.028 240.021,119.073 Q240.327,119.118 240.633,119.181 Q240.939,119.244 241.155,119.334 z" fill="#B1B1B1"/>
    <path d="M245.277,122.592 Q245.673,122.16 246.096,121.692 Q246.519,121.224 246.915,120.765 Q247.311,120.306 247.662,119.892 Q248.013,119.478 248.265,119.172 L251.451,119.172 Q250.497,120.27 249.588,121.269 Q248.679,122.268 247.599,123.33 Q248.139,123.816 248.715,124.491 Q249.291,125.166 249.831,125.886 Q250.371,126.606 250.821,127.326 Q251.271,128.046 251.577,128.64 L248.499,128.64 Q248.211,128.172 247.842,127.605 Q247.473,127.038 247.059,126.471 Q246.645,125.904 246.186,125.382 Q245.727,124.86 245.277,124.5 L245.277,128.64 L242.595,128.64 L242.595,115.104 L245.277,114.672 z" fill="#B1B1B1"/>
  </g>
</svg>
