<?xml version="1.0" encoding="UTF-8"?>
<!DOCTYPE svg PUBLIC "-//W3C//DTD SVG 1.1//EN" "http://www.w3.org/Graphics/SVG/1.1/DTD/svg11.dtd">
<svg version="1.1" xmlns="http://www.w3.org/2000/svg" xmlns:xlink="http://www.w3.org/1999/xlink" x="0" y="0" width="800" height="800" viewBox="0, 0, 800, 800">
  <g id="Layer_7">
    <g>
      <path d="M340.64,48.107 C340.64,48.107 699.285,251.012 698.731,350.589 C698.177,450.166 398.377,750.557 398.377,750.557 C398.377,750.557 100.715,453.491 101.269,353.913 C101.823,254.336 340.64,48.107 340.64,48.107 z" fill="#FD603F"/>
      <path d="M457.613,165.08 C457.613,165.08 649.639,335.214 649.177,418.273 C648.714,501.331 398.377,750.557 398.377,750.557 C398.377,750.557 150.361,504.105 150.823,421.046 C151.285,337.987 457.613,165.08 457.613,165.08 z" fill="#FDB83E"/>
      <path d="M340.64,282.052 C340.64,282.052 599.889,416.381 599.518,482.994 C599.147,549.607 398.377,750.557 398.377,750.557 C398.377,750.557 199.469,551.831 199.839,485.218 C200.21,418.605 340.64,282.052 340.64,282.052 z" fill="#FDE940"/>
      <path d="M457.613,399.025 C457.613,399.025 552.6,499.686 552.6,549.8 C552.6,599.914 398.377,750.558 398.377,750.558 C398.377,750.558 242.2,598.314 242.2,548.2 C242.2,498.086 457.613,399.025 457.613,399.025 z" fill="#F8FF72"/>
    </g>
  </g>
</svg>
